<?xml version="1.0" encoding="utf-8"?>
<!-- Generator: Adobe Illustrator 26.4.1, SVG Export Plug-In . SVG Version: 6.00 Build 0)  -->
<svg version="1.1" id="Layer_1" xmlns="http://www.w3.org/2000/svg" xmlns:xlink="http://www.w3.org/1999/xlink" x="0px" y="0px"
	 viewBox="0 0 627.1 974.7" style="enable-background:new 0 0 627.1 974.7;" xml:space="preserve">
<style type="text/css">
	.st0{fill:#F2887E;}
</style>
<g>
	<path class="st0" d="M80.6,974.7l129.9-359.2c24.2,6.2,49.3,8.7,75.4,7.6c34.4-1.6,65.5-11.1,93.4-28.7
		c27.8-17.6,49.8-37.8,65.9-60.6c16.1-22.8,28.4-46.1,36.9-69.6l133-367.8l-0.5-0.2l-67.7-24.5l-172-62.2l-24.7,68.2l172,62.2
		L413.9,439.4c-16.9,46.6-44.2,80-82.1,100.2c-37.9,20.2-78.4,22.4-121.6,6.8c-40.3-14.6-68.8-39.2-85.6-73.9
		c-16.7-34.7-20.1-74-10.1-117.9l-70.1-8.7c-12.1,58.8-5.5,112.1,19.8,160c22.5,42.5,57.4,74.1,104.8,95.2L39.3,959.8"/>
	<path class="st0" d="M401.3,390.3c-44.1,138-118.3,156-185.9,131.6c-67.5-24.4-94.8-94.2-76.9-163.6"/>
</g>
</svg>
