<?xml version="1.0" encoding="utf-8"?>
<!-- Generator: Adobe Illustrator 26.3.1, SVG Export Plug-In . SVG Version: 6.00 Build 0)  -->
<svg version="1.1" id="Layer_1" xmlns="http://www.w3.org/2000/svg" xmlns:xlink="http://www.w3.org/1999/xlink" x="0px" y="0px"
	 viewBox="0 0 264 264" style="enable-background:new 0 0 264 264;" xml:space="preserve">
<style type="text/css">
	.st0{fill:#6A0F32;}
</style>
<path class="st0" d="M186.2,261.9c0,0-44.1-5.6-44.1-23.9c0-7.2,0-65,0-73.9c-2.5,0.3-5.1,0.4-7.7,0.4c-2.9,0-5.7-0.2-8.3-0.5
	c0,8.7,0,66.7,0,73.9c0,18.3-44.1,23.9-44.1,23.9c-2.2,0.3-2.6,2.1-2.6,2.1H131h6.2h51.6C188.8,264,188.4,262.3,186.2,261.9z"/>
<path class="st0" d="M186.9,0H75.1v0.4v0.9v98.2c0,18.1,5.3,32.9,15.4,42.6c3.1,3,6.6,5.5,10.5,7.6c8.8,5.7,19.8,9.3,33.5,9.3
	c15.6,0,28.8-4.7,38-13.8c9.2-9.2,14.5-23,14.5-41.5V1.3l0,0V0H186.9z M159,102.6c0,20.8-10.1,30.6-25,30.6
	c-13.3,0-22.5-6.7-31.7-18.3l-17.6,17.9c-5.6-8.9-8.5-20.3-8.5-33.7V1H159V102.6z"/>
</svg>
