<?xml version="1.0" encoding="utf-8"?>
<!-- Generator: Adobe Illustrator 21.1.0, SVG Export Plug-In . SVG Version: 6.00 Build 0)  -->
<svg version="1.1" id="Layer_1" xmlns="http://www.w3.org/2000/svg" xmlns:xlink="http://www.w3.org/1999/xlink" x="0px" y="0px"
	 viewBox="0 0 485 264" style="enable-background:new 0 0 485 264;" xml:space="preserve">
<style type="text/css">
	.st0{fill:#6A0F32;}
</style>
	<path class="st0" d="M455.1,120.5h8V99.6l15.8,20.9h6.1V87.7h-8v20.2l-15.3-20.2h-6.6V120.5z M427.2,114.5c-5.9,0-10-4.7-10-10.4
		V104c0-5.7,4.1-10.3,9.9-10.3c5.9,0,10,4.7,10,10.4v0.1C437.1,109.9,433,114.5,427.2,114.5 M427.6,121.1c10.1,0,17.5-7.6,17.5-17
		V104c0-9.3-7.3-16.9-17.4-16.9c-10.1,0-17.5,7.6-17.5,17v0.1C410.1,113.5,417.4,121.1,427.6,121.1 M385.9,121.3
		c6.1,0,10.8-2.4,14.2-5.3v-14.4h-14v6h7v4.7c-1.9,1.3-4.2,2-6.9,2c-5.9,0-10.1-4.5-10.1-10.5v0.6c0-5.9,4.4-10.8,10-10.8
		c4,0,6.4,1.3,9.1,3.5l4.8-5.8c-3.6-3.1-7.4-4.8-13.6-4.8c-10.5,0-18.2,8.1-18.2,17.9v-0.3c0,9.8,7.1,17.1,17.5,17.1 M339.3,103.6
		v-10h7.2c3.6,0,5.7,1.7,5.7,5v0.1c0,2.9-2,4.9-5.6,4.9H339.3z M331.3,120.5h8v-11h5.9l7.4,11h7.7l-8.2-11.7
		c4.3-1.6,7.2-4.9,7.2-10.2v-0.1c0-3.1-1-5.7-2.9-7.5c-2.2-2.2-5.5-3.3-9.8-3.3h-15.3V120.5z M300.5,106.6l4.4-10.8l4.4,10.8H300.5z
		 M287.2,120.5h8.3l2.8-7h13.2l2.8,7h8.5l-14.4-33.9h-6.8L287.2,120.5z"/>
	<path class="st0" d="M126.7,119.5h25v-3h-21v-12h18v-3h-18v-11h20v-4h-24V119.5z M82.8,119.5h3v-27l21.9,27h3.1V86.7h-3V113
		L86.4,86.7h-3.6V119.5z M62.8,119.5h4V86.7h-4V119.5z M12,120.5h3.2l9.3-27.3l9.2,27.3H37l12-33.9h-4.2l-9.5,27.8l-9.1-26.8H23
		l-9.1,26.8L4.4,86.7H0L12,120.5z"/>
	<path class="st0" d="M278.7,261.9c0,0-44.1-5.6-44.1-23.9c0-7.2,0-65,0-73.9c-2.5,0.3-5.1,0.4-7.7,0.4c-2.9,0-5.7-0.2-8.3-0.5
			c0,8.7,0,66.7,0,73.9c0,18.3-44.1,23.9-44.1,23.9c-2.2,0.3-2.6,2.1-2.6,2.1h51.6h6.2h51.6C281.3,264,280.9,262.3,278.7,261.9z"/>
	<path class="st0" d="M279.4,0H167.6v0.4v0.9v98.2c0,18.1,5.3,32.9,15.4,42.6c3.1,3,6.6,5.5,10.5,7.6c8.8,5.7,19.8,9.3,33.5,9.3
			c15.6,0,28.8-4.7,38-13.8c9.2-9.2,14.5-23,14.5-41.5V1.3h0V0z M251.5,102.6c0,20.8-10.1,30.6-25,30.6c-13.3,0-22.5-6.7-31.7-18.3
			l-17.6,17.9c-5.6-8.9-8.5-20.3-8.5-33.7V1h82.8V102.6z"/>
</svg>
