<?xml version="1.0" encoding="utf-8"?>
<svg version="1.1" id="Layer_1" xmlns="http://www.w3.org/2000/svg" xmlns:xlink="http://www.w3.org/1999/xlink" x="0px" y="0px"
	 viewBox="0 0 62 142" style="enable-background:new 0 0 62 142;" xml:space="preserve">
<path d="M60.8,0.4h-60v0.2v0.5v52.5c0,9.7,2.8,17.6,8.2,22.8c1.6,1.6,3.5,2.9,5.6,4c4.7,3,10.6,5,18,5
	C41,85.4,48,82.8,53,78c4.9-4.9,7.8-12.3,7.8-22.2V1.1h0V0.4z M45.6,55.3c0,11.1-5.4,16.4-13.3,16.4c-7.1,0-12-3.6-16.9-9.8L6,71.4
	c-3-4.8-4.6-10.9-4.6-18V1h44.2V55.3z"/>
<path d="M59.9,140.2c0,0-23.3-2.9-23.3-12.7c0-3.8,0-34.4,0-39.1c-1.3,0.1-2.7,0.2-4.1,0.2c-1.5,0-3-0.1-4.4-0.2
	c0,4.6,0,35.3,0,39.1c0,9.7-23.3,12.7-23.3,12.7c-1.2,0.2-1.4,1.1-1.4,1.1h27.3H34h27.3C61.3,141.3,61.1,140.4,59.9,140.2z"/>
</svg>
