<?xml version="1.0" encoding="utf-8"?>
<!-- Generator: Adobe Illustrator 21.1.0, SVG Export Plug-In . SVG Version: 6.00 Build 0)  -->
<svg version="1.1" id="Layer_1" xmlns="http://www.w3.org/2000/svg" xmlns:xlink="http://www.w3.org/1999/xlink" x="0px" y="0px"
	 viewBox="0 0 486 312" style="enable-background:new 0 0 486 312;" xml:space="preserve">
<path style="fill: #ffffff" d="M455.1,122.5h8v-20.9l15.8,20.9h6.1V89.7h-8v20.2l-15.3-20.2h-6.6V122.5z M427.2,116.5c-5.9,0-10-4.7-10-10.4
	V106c0-5.7,4.1-10.3,9.9-10.3c5.9,0,10,4.7,10,10.4v0.1C437.1,111.9,433,116.5,427.2,116.5 M427.6,123.1c10.1,0,17.5-7.6,17.5-17
	V106c0-9.3-7.3-16.9-17.4-16.9s-17.5,7.6-17.5,17v0.1C410.1,115.5,417.4,123.1,427.6,123.1 M385.9,123.3c6.1,0,10.8-2.4,14.2-5.3
	v-14.4h-14v6h7v4.7c-1.9,1.3-4.2,2-6.9,2c-5.9,0-10.1-4.5-10.1-10.5v0.6c0-5.9,4.4-10.8,10-10.8c4,0,6.4,1.3,9.1,3.5l4.8-5.8
	c-3.6-3.1-7.4-4.8-13.6-4.8c-10.5,0-18.2,8.1-18.2,17.9v-0.3c0,9.8,7.1,17.1,17.5,17.1 M339.3,105.6v-10h7.2c3.6,0,5.7,1.7,5.7,5
	v0.1c0,2.9-2,4.9-5.6,4.9H339.3z M331.3,122.5h8v-11h5.9l7.4,11h7.7l-8.2-11.7c4.3-1.6,7.2-4.9,7.2-10.2v-0.1c0-3.1-1-5.7-2.9-7.5
	c-2.2-2.2-5.5-3.3-9.8-3.3h-15.3L331.3,122.5L331.3,122.5z M300.5,108.6l4.4-10.8l4.4,10.8H300.5z M287.2,122.5h8.3l2.8-7h13.2
	l2.8,7h8.5l-14.4-33.9h-6.8L287.2,122.5z"/>
<path style="fill: #ffffff" d="M126.7,121.5h25v-3h-21v-12h18v-3h-18v-11h20v-4h-24V121.5z M82.8,121.5h3v-27l21.9,27h3.1V88.7h-3V115
	L86.4,88.7h-3.6V121.5z M62.8,121.5h4V88.7h-4C62.8,88.7,62.8,121.5,62.8,121.5z M12,122.5h3.2l9.3-27.3l9.2,27.3H37l12-33.9h-4.2
	l-9.5,27.8l-9.1-26.8H23l-9.1,26.8L4.4,88.7H0L12,122.5z"/>
<path style="fill: #ffffff" d="M278.7,263.9c0,0-44.1-5.6-44.1-23.9c0-7.2,0-65,0-73.9c-2.5,0.3-5.1,0.4-7.7,0.4c-2.9,0-5.7-0.2-8.3-0.5
	c0,8.7,0,66.7,0,73.9c0,18.3-44.1,23.9-44.1,23.9c-2.2,0.3-2.6,2.1-2.6,2.1h51.6h6.2h51.6C281.3,266,280.9,264.3,278.7,263.9z"/>
<path style="fill: #ffffff" d="M279.4,2H167.6v0.4v0.9v98.2c0,18.1,5.3,32.9,15.4,42.6c3.1,3,6.6,5.5,10.5,7.6c8.8,5.7,19.8,9.3,33.5,9.3
	c15.6,0,28.8-4.7,38-13.8c9.2-9.2,14.5-23,14.5-41.5V3.3l0,0V2H279.4z M251.5,104.6c0,20.8-10.1,30.6-25,30.6
	c-13.3,0-22.5-6.7-31.7-18.3l-17.6,17.9c-5.6-8.9-8.5-20.3-8.5-33.7V3h82.8V104.6z"/>
<path style="fill: #ffffff" d="M45.3,296.9h10.1v2.3H42.5v-21.3h2.8V296.9z"/>
<path style="fill: #ffffff" d="M64.8,299.5c-1.1,0-2.1-0.2-3-0.6s-1.7-0.9-2.3-1.6s-1.1-1.5-1.5-2.4s-0.5-2-0.5-3.1v-0.6
	c0-1.3,0.2-2.4,0.6-3.5s0.9-1.9,1.5-2.6s1.4-1.2,2.2-1.6c0.8-0.4,1.7-0.5,2.6-0.5c1.1,0,2.1,0.2,2.9,0.6c0.8,0.4,1.5,0.9,2,1.6
	s0.9,1.5,1.2,2.5s0.4,2,0.4,3.1v1.2H60.2c0,0.7,0.1,1.4,0.4,2.1s0.5,1.2,0.9,1.7s0.9,0.8,1.5,1.1s1.2,0.4,1.9,0.4
	c1,0,1.8-0.2,2.4-0.6s1.2-0.9,1.7-1.6l1.7,1.3c-0.3,0.4-0.6,0.8-0.9,1.1c-0.4,0.4-0.8,0.7-1.3,1c-0.5,0.3-1,0.5-1.7,0.7
	C66.2,299.4,65.5,299.5,64.8,299.5z M64.4,285.2c-0.5,0-1,0.1-1.5,0.3s-0.9,0.5-1.2,0.9s-0.7,0.9-0.9,1.4s-0.4,1.2-0.5,1.9h7.9v-0.2
	c0-0.5-0.1-1-0.3-1.6s-0.4-1-0.7-1.4s-0.7-0.7-1.2-1S65.1,285.2,64.4,285.2z"/>
<path style="fill: #ffffff" d="M83.9,299.2c-0.1-0.2-0.2-0.4-0.2-0.7c-0.1-0.3-0.1-0.6-0.1-0.9c-0.3,0.3-0.5,0.5-0.9,0.8
	c-0.3,0.2-0.7,0.5-1,0.6s-0.8,0.3-1.2,0.4c-0.4,0.1-0.9,0.2-1.4,0.2c-0.8,0-1.5-0.1-2.2-0.4s-1.2-0.6-1.7-1s-0.8-0.9-1.1-1.5
	c-0.3-0.6-0.4-1.2-0.4-1.8c0-0.8,0.2-1.6,0.5-2.2s0.8-1.2,1.4-1.6s1.4-0.8,2.2-1s1.9-0.3,2.9-0.3h2.7v-1.2c0-0.9-0.3-1.7-0.8-2.3
	s-1.4-0.8-2.5-0.8c-0.5,0-1,0.1-1.4,0.2s-0.8,0.3-1.1,0.5s-0.5,0.5-0.7,0.8s-0.2,0.6-0.2,1h-2.7c0-0.6,0.1-1.1,0.4-1.7
	s0.7-1.1,1.3-1.5s1.2-0.8,2-1.1c0.8-0.3,1.6-0.4,2.6-0.4c0.9,0,1.7,0.1,2.4,0.3c0.7,0.2,1.3,0.6,1.9,1s0.9,1,1.2,1.7
	s0.4,1.4,0.4,2.3v7.4c0,0.5,0,1.1,0.1,1.7c0.1,0.6,0.2,1.1,0.4,1.5v0.2H83.9z M79.4,297.1c0.5,0,0.9-0.1,1.4-0.2s0.8-0.3,1.2-0.5
	c0.4-0.2,0.7-0.5,0.9-0.8s0.5-0.6,0.6-0.9v-3.3h-2.3c-1.6,0-2.7,0.2-3.6,0.7c-0.8,0.5-1.3,1.2-1.3,2.2c0,0.4,0.1,0.7,0.2,1.1
	s0.3,0.6,0.6,0.9c0.3,0.2,0.6,0.4,1,0.6S78.9,297.1,79.4,297.1z"/>
<path style="fill: #ffffff" d="M98,285.7c-0.2,0-0.5-0.1-0.7-0.1c-0.2,0-0.4,0-0.7,0c-0.9,0-1.7,0.2-2.3,0.6s-1,1-1.3,1.7v11.3h-2.7v-15.8H93
	l0,1.8c0.4-0.7,0.9-1.2,1.5-1.6s1.4-0.6,2.2-0.6c0.2,0,0.4,0,0.7,0.1c0.3,0,0.4,0.1,0.5,0.1V285.7z"/>
<path style="fill: #ffffff" d="M103.1,283.3l0.1,2c0.6-0.7,1.3-1.3,2.1-1.7c0.8-0.4,1.7-0.6,2.7-0.6c0.8,0,1.5,0.1,2.1,0.3
	c0.6,0.2,1.2,0.5,1.6,1s0.8,1.1,1,1.8s0.4,1.6,0.4,2.6v10.4h-2.7v-10.4c0-0.6-0.1-1.1-0.2-1.6c-0.1-0.4-0.3-0.8-0.6-1.1
	s-0.6-0.5-1-0.6s-0.9-0.2-1.4-0.2c-0.9,0-1.7,0.2-2.3,0.7s-1.2,1.1-1.6,1.8v11.3h-2.7v-15.8H103.1z"/>
<path style="fill: #ffffff" d="M117.1,279.1c0-0.4,0.1-0.8,0.4-1.1s0.7-0.5,1.2-0.5s0.9,0.2,1.2,0.5s0.4,0.7,0.4,1.1s-0.1,0.8-0.4,1.1
	s-0.7,0.4-1.2,0.4s-0.9-0.1-1.2-0.4S117.1,279.5,117.1,279.1z M120,299.2h-2.7v-15.8h2.7V299.2z"/>
<path style="fill: #ffffff" d="M126.9,283.3l0.1,2c0.6-0.7,1.3-1.3,2.1-1.7c0.8-0.4,1.7-0.6,2.7-0.6c0.8,0,1.5,0.1,2.1,0.3
	c0.6,0.2,1.2,0.5,1.6,1s0.8,1.1,1,1.8s0.4,1.6,0.4,2.6v10.4h-2.7v-10.4c0-0.6-0.1-1.1-0.2-1.6c-0.1-0.4-0.3-0.8-0.6-1.1
	s-0.6-0.5-1-0.6s-0.9-0.2-1.4-0.2c-0.9,0-1.7,0.2-2.3,0.7s-1.2,1.1-1.6,1.8v11.3h-2.7v-15.8H126.9z"/>
<path style="fill: #ffffff" d="M140.3,291.1c0-1.2,0.1-2.3,0.4-3.3s0.7-1.8,1.2-2.5s1.2-1.3,2-1.6s1.6-0.6,2.6-0.6c1,0,1.9,0.2,2.6,0.5
	s1.4,0.9,1.9,1.5l0.1-1.8h2.5v15.5c0,1-0.2,2-0.5,2.8s-0.8,1.5-1.4,2.1c-0.6,0.6-1.3,1-2.1,1.3s-1.7,0.4-2.7,0.4
	c-0.4,0-0.9,0-1.4-0.1c-0.5-0.1-1.1-0.2-1.6-0.5s-1.1-0.5-1.6-0.8s-0.9-0.8-1.3-1.3l1.4-1.6c0.3,0.4,0.7,0.8,1,1s0.7,0.5,1.1,0.7
	s0.7,0.3,1.1,0.4c0.4,0.1,0.7,0.1,1.1,0.1c0.6,0,1.2-0.1,1.7-0.3c0.5-0.2,1-0.5,1.3-0.8s0.6-0.8,0.8-1.3c0.2-0.5,0.3-1.1,0.3-1.8
	v-1.4c-0.5,0.6-1.2,1.1-1.9,1.4s-1.6,0.5-2.6,0.5c-0.9,0-1.8-0.2-2.6-0.6s-1.4-1-2-1.7c-0.5-0.7-1-1.6-1.3-2.5
	c-0.3-1-0.4-2.1-0.4-3.2V291.1z M143,291.4c0,0.8,0.1,1.5,0.2,2.2c0.2,0.7,0.4,1.3,0.7,1.8s0.8,0.9,1.3,1.2s1.2,0.5,1.9,0.5
	c0.5,0,0.9-0.1,1.3-0.2s0.7-0.3,1-0.5s0.6-0.4,0.8-0.7s0.4-0.6,0.6-0.9v-7.2c-0.2-0.3-0.4-0.6-0.6-0.9c-0.2-0.3-0.5-0.5-0.8-0.7
	s-0.7-0.4-1-0.5s-0.8-0.2-1.3-0.2c-0.7,0-1.4,0.2-1.9,0.5c-0.5,0.3-1,0.7-1.3,1.3s-0.6,1.1-0.8,1.8c-0.2,0.7-0.2,1.4-0.2,2.2V291.4z
	"/>
<path style="fill: #ffffff" d="M179.8,280.2h-6.9v19h-2.8v-19h-6.8v-2.3h16.5V280.2z"/>
<path style="fill: #ffffff" d="M185.2,285.2c0.6-0.7,1.2-1.2,2-1.6s1.7-0.6,2.7-0.6c0.8,0,1.5,0.1,2.1,0.3c0.6,0.2,1.2,0.5,1.6,1
	s0.8,1.1,1,1.8s0.4,1.6,0.4,2.6v10.4h-2.7v-10.4c0-0.6-0.1-1.1-0.2-1.6c-0.1-0.4-0.3-0.8-0.6-1.1s-0.6-0.5-1-0.6s-0.9-0.2-1.4-0.2
	c-0.9,0-1.7,0.2-2.3,0.7s-1.2,1.1-1.6,1.8v11.3h-2.7v-22.5h2.7V285.2z"/>
<path style="fill: #ffffff" d="M205.6,299.5c-1.1,0-2.1-0.2-3-0.6s-1.7-0.9-2.3-1.6s-1.1-1.5-1.5-2.4s-0.5-2-0.5-3.1v-0.6
	c0-1.3,0.2-2.4,0.6-3.5s0.9-1.9,1.5-2.6s1.4-1.2,2.2-1.6c0.8-0.4,1.7-0.5,2.6-0.5c1.1,0,2.1,0.2,2.9,0.6c0.8,0.4,1.5,0.9,2,1.6
	s0.9,1.5,1.2,2.5s0.4,2,0.4,3.1v1.2H201c0,0.7,0.1,1.4,0.4,2.1s0.5,1.2,0.9,1.7s0.9,0.8,1.5,1.1s1.2,0.4,1.9,0.4
	c1,0,1.8-0.2,2.4-0.6s1.2-0.9,1.7-1.6l1.7,1.3c-0.3,0.4-0.6,0.8-0.9,1.1c-0.4,0.4-0.8,0.7-1.3,1c-0.5,0.3-1,0.5-1.7,0.7
	C207.1,299.4,206.4,299.5,205.6,299.5z M205.3,285.2c-0.5,0-1,0.1-1.5,0.3s-0.9,0.5-1.2,0.9s-0.7,0.9-0.9,1.4s-0.4,1.2-0.5,1.9h7.9
	v-0.2c0-0.5-0.1-1-0.3-1.6s-0.4-1-0.7-1.4s-0.7-0.7-1.2-1S206,285.2,205.3,285.2z"/>
<path style="fill: #ffffff" d="M225.6,296.9h10.1v2.3h-12.9v-21.3h2.8V296.9z"/>
<path style="fill: #ffffff" d="M248.3,299.2c-0.1-0.2-0.2-0.4-0.2-0.7c-0.1-0.3-0.1-0.6-0.1-0.9c-0.3,0.3-0.5,0.5-0.9,0.8
	c-0.3,0.2-0.7,0.5-1,0.6s-0.8,0.3-1.2,0.4c-0.4,0.1-0.9,0.2-1.4,0.2c-0.8,0-1.5-0.1-2.2-0.4s-1.2-0.6-1.7-1s-0.8-0.9-1.1-1.5
	c-0.3-0.6-0.4-1.2-0.4-1.8c0-0.8,0.2-1.6,0.5-2.2s0.8-1.2,1.4-1.6s1.4-0.8,2.2-1s1.9-0.3,2.9-0.3h2.7v-1.2c0-0.9-0.3-1.7-0.8-2.3
	s-1.4-0.8-2.5-0.8c-0.5,0-1,0.1-1.4,0.2s-0.8,0.3-1.1,0.5s-0.5,0.5-0.7,0.8s-0.2,0.6-0.2,1h-2.7c0-0.6,0.1-1.1,0.4-1.7
	s0.7-1.1,1.3-1.5s1.2-0.8,2-1.1c0.8-0.3,1.6-0.4,2.6-0.4c0.9,0,1.7,0.1,2.4,0.3c0.7,0.2,1.3,0.6,1.9,1s0.9,1,1.2,1.7
	s0.4,1.4,0.4,2.3v7.4c0,0.5,0,1.1,0.1,1.7c0.1,0.6,0.2,1.1,0.4,1.5v0.2H248.3z M243.8,297.1c0.5,0,0.9-0.1,1.4-0.2s0.8-0.3,1.2-0.5
	c0.4-0.2,0.7-0.5,0.9-0.8s0.5-0.6,0.6-0.9v-3.3h-2.3c-1.6,0-2.7,0.2-3.6,0.7c-0.8,0.5-1.3,1.2-1.3,2.2c0,0.4,0.1,0.7,0.2,1.1
	s0.3,0.6,0.6,0.9c0.3,0.2,0.6,0.4,1,0.6S243.3,297.1,243.8,297.1z"/>
<path style="fill: #ffffff" d="M257.4,283.3l0.1,2c0.6-0.7,1.3-1.3,2.1-1.7c0.8-0.4,1.7-0.6,2.7-0.6c0.8,0,1.5,0.1,2.1,0.3
	c0.6,0.2,1.2,0.5,1.6,1s0.8,1.1,1,1.8s0.4,1.6,0.4,2.6v10.4h-2.7v-10.4c0-0.6-0.1-1.1-0.2-1.6c-0.1-0.4-0.3-0.8-0.6-1.1
	s-0.6-0.5-1-0.6s-0.9-0.2-1.4-0.2c-0.9,0-1.7,0.2-2.3,0.7s-1.2,1.1-1.6,1.8v11.3h-2.7v-15.8H257.4z"/>
<path style="fill: #ffffff" d="M270.7,291.1c0-1.2,0.1-2.3,0.4-3.3s0.7-1.8,1.2-2.5s1.2-1.3,2-1.6s1.6-0.6,2.6-0.6c1,0,1.9,0.2,2.6,0.5
	s1.4,0.9,1.9,1.5l0.1-1.8h2.5v15.5c0,1-0.2,2-0.5,2.8s-0.8,1.5-1.4,2.1c-0.6,0.6-1.3,1-2.1,1.3s-1.7,0.4-2.7,0.4
	c-0.4,0-0.9,0-1.4-0.1c-0.5-0.1-1.1-0.2-1.6-0.5s-1.1-0.5-1.6-0.8s-0.9-0.8-1.3-1.3l1.4-1.6c0.3,0.4,0.7,0.8,1,1s0.7,0.5,1.1,0.7
	s0.7,0.3,1.1,0.4c0.4,0.1,0.7,0.1,1.1,0.1c0.6,0,1.2-0.1,1.7-0.3c0.5-0.2,1-0.5,1.3-0.8s0.6-0.8,0.8-1.3c0.2-0.5,0.3-1.1,0.3-1.8
	v-1.4c-0.5,0.6-1.2,1.1-1.9,1.4s-1.6,0.5-2.6,0.5c-0.9,0-1.8-0.2-2.6-0.6s-1.4-1-2-1.7c-0.5-0.7-1-1.6-1.3-2.5
	c-0.3-1-0.4-2.1-0.4-3.2V291.1z M273.4,291.4c0,0.8,0.1,1.5,0.2,2.2c0.2,0.7,0.4,1.3,0.7,1.8s0.8,0.9,1.3,1.2s1.2,0.5,1.9,0.5
	c0.5,0,0.9-0.1,1.3-0.2s0.7-0.3,1-0.5s0.6-0.4,0.8-0.7s0.4-0.6,0.6-0.9v-7.2c-0.2-0.3-0.4-0.6-0.6-0.9c-0.2-0.3-0.5-0.5-0.8-0.7
	s-0.7-0.4-1-0.5s-0.8-0.2-1.3-0.2c-0.7,0-1.4,0.2-1.9,0.5c-0.5,0.3-1,0.7-1.3,1.3s-0.6,1.1-0.8,1.8c-0.2,0.7-0.2,1.4-0.2,2.2V291.4z
	"/>
<path style="fill: #ffffff" d="M298,297.6c-0.5,0.6-1.1,1-1.9,1.4c-0.8,0.3-1.7,0.5-2.8,0.5c-0.8,0-1.5-0.1-2.1-0.3c-0.6-0.2-1.2-0.6-1.6-1
	s-0.8-1.1-1.1-1.8c-0.2-0.7-0.4-1.6-0.4-2.7v-10.2h2.7v10.3c0,0.7,0.1,1.3,0.2,1.8c0.2,0.5,0.4,0.8,0.7,1.1s0.6,0.5,0.9,0.6
	c0.4,0.1,0.7,0.2,1.1,0.2c1.1,0,2-0.2,2.7-0.6s1.2-1,1.5-1.7v-11.5h2.7v15.8H298L298,297.6z"/>
<path style="fill: #ffffff" d="M314.5,299.2c-0.1-0.2-0.2-0.4-0.2-0.7c-0.1-0.3-0.1-0.6-0.1-0.9c-0.3,0.3-0.5,0.5-0.9,0.8
	c-0.3,0.2-0.7,0.5-1,0.6s-0.8,0.3-1.2,0.4c-0.4,0.1-0.9,0.2-1.4,0.2c-0.8,0-1.5-0.1-2.2-0.4s-1.2-0.6-1.7-1s-0.8-0.9-1.1-1.5
	c-0.3-0.6-0.4-1.2-0.4-1.8c0-0.8,0.2-1.6,0.5-2.2s0.8-1.2,1.4-1.6s1.4-0.8,2.2-1s1.9-0.3,2.9-0.3h2.7v-1.2c0-0.9-0.3-1.7-0.8-2.3
	s-1.4-0.8-2.5-0.8c-0.5,0-1,0.1-1.4,0.2s-0.8,0.3-1.1,0.5s-0.5,0.5-0.7,0.8s-0.2,0.6-0.2,1h-2.7c0-0.6,0.1-1.1,0.4-1.7
	s0.7-1.1,1.3-1.5s1.2-0.8,2-1.1c0.8-0.3,1.6-0.4,2.6-0.4c0.9,0,1.7,0.1,2.4,0.3c0.7,0.2,1.3,0.6,1.9,1s0.9,1,1.2,1.7
	s0.4,1.4,0.4,2.3v7.4c0,0.5,0,1.1,0.1,1.7c0.1,0.6,0.2,1.1,0.4,1.5v0.2H314.5z M310,297.1c0.5,0,0.9-0.1,1.4-0.2s0.8-0.3,1.2-0.5
	c0.4-0.2,0.7-0.5,0.9-0.8s0.5-0.6,0.6-0.9v-3.3h-2.3c-1.6,0-2.7,0.2-3.6,0.7c-0.8,0.5-1.3,1.2-1.3,2.2c0,0.4,0.1,0.7,0.2,1.1
	s0.3,0.6,0.6,0.9c0.3,0.2,0.6,0.4,1,0.6S309.5,297.1,310,297.1z"/>
<path style="fill: #ffffff" d="M320.4,291.1c0-1.2,0.1-2.3,0.4-3.3s0.7-1.8,1.2-2.5s1.2-1.3,2-1.6s1.6-0.6,2.6-0.6c1,0,1.9,0.2,2.6,0.5
	s1.4,0.9,1.9,1.5l0.1-1.8h2.5v15.5c0,1-0.2,2-0.5,2.8s-0.8,1.5-1.4,2.1c-0.6,0.6-1.3,1-2.1,1.3s-1.7,0.4-2.7,0.4
	c-0.4,0-0.9,0-1.4-0.1c-0.5-0.1-1.1-0.2-1.6-0.5s-1.1-0.5-1.6-0.8s-0.9-0.8-1.3-1.3l1.4-1.6c0.3,0.4,0.7,0.8,1,1s0.7,0.5,1.1,0.7
	s0.7,0.3,1.1,0.4c0.4,0.1,0.7,0.1,1.1,0.1c0.6,0,1.2-0.1,1.7-0.3c0.5-0.2,1-0.5,1.3-0.8s0.6-0.8,0.8-1.3c0.2-0.5,0.3-1.1,0.3-1.8
	v-1.4c-0.5,0.6-1.2,1.1-1.9,1.4s-1.6,0.5-2.6,0.5c-0.9,0-1.8-0.2-2.6-0.6s-1.4-1-2-1.7c-0.5-0.7-1-1.6-1.3-2.5
	c-0.3-1-0.4-2.1-0.4-3.2V291.1z M323.1,291.4c0,0.8,0.1,1.5,0.2,2.2c0.2,0.7,0.4,1.3,0.7,1.8s0.8,0.9,1.3,1.2s1.2,0.5,1.9,0.5
	c0.5,0,0.9-0.1,1.3-0.2s0.7-0.3,1-0.5s0.6-0.4,0.8-0.7s0.4-0.6,0.6-0.9v-7.2c-0.2-0.3-0.4-0.6-0.6-0.9c-0.2-0.3-0.5-0.5-0.8-0.7
	s-0.7-0.4-1-0.5s-0.8-0.2-1.3-0.2c-0.7,0-1.4,0.2-1.9,0.5c-0.5,0.3-1,0.7-1.3,1.3s-0.6,1.1-0.8,1.8c-0.2,0.7-0.2,1.4-0.2,2.2V291.4z
	"/>
<path style="fill: #ffffff" d="M344.4,299.5c-1.1,0-2.1-0.2-3-0.6s-1.7-0.9-2.3-1.6s-1.1-1.5-1.5-2.4s-0.5-2-0.5-3.1v-0.6
	c0-1.3,0.2-2.4,0.6-3.5s0.9-1.9,1.5-2.6s1.4-1.2,2.2-1.6c0.8-0.4,1.7-0.5,2.6-0.5c1.1,0,2.1,0.2,2.9,0.6c0.8,0.4,1.5,0.9,2,1.6
	s0.9,1.5,1.2,2.5s0.4,2,0.4,3.1v1.2h-10.7c0,0.7,0.1,1.4,0.4,2.1s0.5,1.2,0.9,1.7s0.9,0.8,1.5,1.1s1.2,0.4,1.9,0.4
	c1,0,1.8-0.2,2.4-0.6s1.2-0.9,1.7-1.6l1.7,1.3c-0.3,0.4-0.6,0.8-0.9,1.1c-0.4,0.4-0.8,0.7-1.3,1c-0.5,0.3-1,0.5-1.7,0.7
	C345.9,299.4,345.2,299.5,344.4,299.5z M344.1,285.2c-0.5,0-1,0.1-1.5,0.3s-0.9,0.5-1.2,0.9s-0.7,0.9-0.9,1.4s-0.4,1.2-0.5,1.9h7.9
	v-0.2c0-0.5-0.1-1-0.3-1.6s-0.4-1-0.7-1.4s-0.7-0.7-1.2-1S344.8,285.2,344.1,285.2z"/>
<path style="fill: #ffffff" d="M360.5,291.1c0-1.2,0.2-2.2,0.5-3.2c0.3-1,0.8-1.8,1.4-2.6s1.4-1.3,2.3-1.7s1.9-0.6,3-0.6c1.1,0,2.1,0.2,3,0.6
	s1.7,1,2.3,1.7s1.1,1.6,1.4,2.6c0.3,1,0.5,2,0.5,3.2v0.3c0,1.2-0.2,2.2-0.5,3.2c-0.3,1-0.8,1.8-1.4,2.5c-0.6,0.7-1.4,1.3-2.3,1.7
	c-0.9,0.4-1.9,0.6-3,0.6s-2.1-0.2-3-0.6c-0.9-0.4-1.6-1-2.3-1.7c-0.6-0.7-1.1-1.6-1.4-2.5c-0.3-1-0.5-2-0.5-3.2V291.1z M363.2,291.4
	c0,0.8,0.1,1.5,0.3,2.2s0.5,1.3,0.8,1.9s0.8,1,1.4,1.3s1.2,0.5,2,0.5c0.7,0,1.4-0.2,2-0.5s1-0.7,1.4-1.3s0.7-1.2,0.8-1.9
	s0.3-1.5,0.3-2.2v-0.3c0-0.8-0.1-1.5-0.3-2.2s-0.5-1.3-0.8-1.9c-0.4-0.5-0.8-1-1.4-1.3s-1.2-0.5-2-0.5c-0.7,0-1.4,0.2-1.9,0.5
	s-1,0.7-1.4,1.3c-0.4,0.5-0.7,1.2-0.8,1.9s-0.3,1.5-0.3,2.2V291.4z"/>
<path style="fill: #ffffff" d="M379.6,299.2v-13.8h-2.5v-2.1h2.5v-1.7c0-0.8,0.1-1.6,0.4-2.3c0.2-0.7,0.6-1.2,1-1.7s1-0.8,1.6-1
	s1.4-0.3,2.2-0.3c0.6,0,1.2,0.1,1.9,0.2l-0.1,2.2c-0.2,0-0.4-0.1-0.7-0.1c-0.3,0-0.5,0-0.8,0c-0.9,0-1.6,0.3-2,0.8
	c-0.5,0.5-0.7,1.2-0.7,2.2v1.7h3.4v2.1h-3.4v13.8H379.6z"/>
<path style="fill: #ffffff" d="M401.2,292.4l0.4,2.8l0.6-2.5l4.2-14.9h2.4l4.1,14.9l0.6,2.6l0.5-2.9l3.3-14.6h2.8l-5.2,21.3h-2.6l-4.4-15.5
	l-0.3-1.6l-0.3,1.6l-4.6,15.5h-2.6l-5.2-21.3h2.8L401.2,292.4z"/>
<path style="fill: #ffffff" d="M422.8,279.1c0-0.4,0.1-0.8,0.4-1.1s0.7-0.5,1.2-0.5s0.9,0.2,1.2,0.5s0.4,0.7,0.4,1.1s-0.1,0.8-0.4,1.1
	s-0.7,0.4-1.2,0.4s-0.9-0.1-1.2-0.4S422.8,279.5,422.8,279.1z M425.7,299.2H423v-15.8h2.7V299.2z"/>
<path style="fill: #ffffff" d="M432.6,283.3l0.1,2c0.6-0.7,1.3-1.3,2.1-1.7c0.8-0.4,1.7-0.6,2.7-0.6c0.8,0,1.5,0.1,2.1,0.3
	c0.6,0.2,1.2,0.5,1.6,1s0.8,1.1,1,1.8s0.4,1.6,0.4,2.6v10.4h-2.7v-10.4c0-0.6-0.1-1.1-0.2-1.6c-0.1-0.4-0.3-0.8-0.6-1.1
	s-0.6-0.5-1-0.6s-0.9-0.2-1.4-0.2c-0.9,0-1.7,0.2-2.3,0.7s-1.2,1.1-1.6,1.8v11.3H430v-15.8H432.6z"/>
<path style="fill: #ffffff" d="M453.2,299.5c-1.1,0-2.1-0.2-3-0.6s-1.7-0.9-2.3-1.6s-1.1-1.5-1.5-2.4s-0.5-2-0.5-3.1v-0.6
	c0-1.3,0.2-2.4,0.6-3.5s0.9-1.9,1.5-2.6s1.4-1.2,2.2-1.6c0.8-0.4,1.7-0.5,2.6-0.5c1.1,0,2.1,0.2,2.9,0.6c0.8,0.4,1.5,0.9,2,1.6
	s0.9,1.5,1.2,2.5s0.4,2,0.4,3.1v1.2h-10.7c0,0.7,0.1,1.4,0.4,2.1s0.5,1.2,0.9,1.7s0.9,0.8,1.5,1.1s1.2,0.4,1.9,0.4
	c1,0,1.8-0.2,2.4-0.6s1.2-0.9,1.7-1.6l1.7,1.3c-0.3,0.4-0.6,0.8-0.9,1.1c-0.4,0.4-0.8,0.7-1.3,1c-0.5,0.3-1,0.5-1.7,0.7
	C454.7,299.4,454,299.5,453.2,299.5z M452.8,285.2c-0.5,0-1,0.1-1.5,0.3s-0.9,0.5-1.2,0.9s-0.7,0.9-0.9,1.4s-0.4,1.2-0.5,1.9h7.9
	v-0.2c0-0.5-0.1-1-0.3-1.6s-0.4-1-0.7-1.4s-0.7-0.7-1.2-1S453.5,285.2,452.8,285.2z"/>
</svg>
